<svg id="Layer_1" data-name="Layer 1" xmlns="http://www.w3.org/2000/svg" viewBox="0 0 159.46 159.46"><defs><style>.cls-1{fill:#fff;}</style></defs><path class="cls-1" d="M322.44,348.22A79.73,79.73,0,1,0,402.17,428,79.73,79.73,0,0,0,322.44,348.22Zm16.85,131.15a19.24,19.24,0,0,1-8.12,3.45c-9.27,1.56-20.25-3.83-21.47-16.05-.68-6.78-1.38-13.55-2-20.33s-3.4-12.18-9.8-14.95a26.22,26.22,0,0,0-8.29-1.64c-3.37-.28-6.77-.07-10.15-.07-1.05,0-2.38.13-2.4-1.33s1.27-1.36,2.34-1.36c3.68,0,7.37.19,11-.09,5.52-.42,11.59-3.87,13.33-12.93a38.11,38.11,0,0,0-.7-18c-1.62-5.63-5.45-8.71-11.09-9.83a41.61,41.61,0,0,0-12.69-.64c-1.11.12-2.14,0-2.26-1.28s.83-1.54,2-1.63c7.23-.57,14.5-.8,21.59.79,12.52,2.81,20,11.91,19.31,25.1-.53,10.73-7.54,17.56-16.82,18.94a10.85,10.85,0,0,0-1.35.38c0,.21,0,.42,0,.63a12.71,12.71,0,0,0,1.59.39,22.17,22.17,0,0,1,19.39,20.63c.2,4.55,0,9.11.38,13.64A47.23,47.23,0,0,0,325,473.43a8.11,8.11,0,0,0,12.43,4c.15-.1.28-.21.42-.32.77-.59,1.59-.95,2.24.06S340,478.83,339.29,479.37Zm10-50.27h0c0,6,0,12-.05,18a2.48,2.48,0,0,1-1,1.95c-1.12.45-1.63-.35-1.71-1.48-.19-2.31-.35-4.64-.67-6.94A12.8,12.8,0,0,0,333.75,430c-3.26,0-6.53,0-9.79,0-.53,0-1-.58-1.56-.89.53-.3,1.05-.84,1.59-.86,3.6-.14,7.25.16,10.81-.29,6.56-.84,10.67-5.39,11.37-12,.17-1.68.28-3.36.35-5.05,0-.93.09-1.85,1.27-1.89s1.47.88,1.47,1.9Zm18.56-23a15.82,15.82,0,0,1-1.29,1.55c-.45-.49-1.19-.93-1.31-1.5-.33-1.7-.26-3.49-.64-5.17a17.57,17.57,0,0,0-15.8-13.61c-7.91-.41-15.85-.22-23.77-.3a5.45,5.45,0,0,1-.7,0c-.9-.11-2.15.42-2.27-1.14-.1-1.3.8-2.09,2.3-2.09H364.4c2.69,0,3.44.74,3.44,3.4q0,9,0,18C367.85,405.53,368,405.9,367.82,406.1Z" transform="translate(-242.71 -348.22)"/></svg>